<svg xmlns="http://www.w3.org/2000/svg" width="50" height="50" viewBox="0 0 50 50">
    <g fill="none" fill-rule="evenodd">
        <g fill="#333" fill-rule="nonzero">
            <g>
                <g>
                    <path d="M.893 50H34.82c.14-.004.278-.041.4-.109l-4.864-3.462H3.571c-.493 0-.892-.4-.892-.893s.4-.893.892-.893h24.395c-.574-.529-1.079-1.129-1.5-1.786h-6.823c-.493 0-.893-.4-.893-.893s.4-.893.893-.893h5.92c-.211-.578-.363-1.176-.451-1.785H3.572c-.494 0-.893-.4-.893-.893s.4-.893.892-.893H25v-1.786h-5.357c-.493 0-.893-.4-.893-.893s.4-.892.893-.892H25v-1.786H3.571c-.493 0-.892-.4-.892-.893s.4-.893.892-.893H25v-1.786h-5.357c-.493 0-.893-.4-.893-.892 0-.494.4-.893.893-.893H25v-1.743c0-.015.005-.029.006-.043H3.571c-.493 0-.892-.4-.892-.893s.4-.893.892-.893h24.303l4.134-1.785H19.643c-.493 0-.893-.4-.893-.893s.4-.893.893-.893h12.5c.493 0 .893.4.893.893-.004.195-.072.384-.196.535l2.874-1.243v-5.542H27.68c-1.48 0-2.679-1.2-2.679-2.679V3.571H.893c-.493 0-.893.4-.893.893v44.643C0 49.6.4 50 .893 50zm12.5-43.75h8.036c.493 0 .892.4.892.893s-.4.893-.892.893h-8.036c-.493 0-.893-.4-.893-.893s.4-.893.893-.893zm-9.822 0H8.93c.493 0 .892.4.892.893s-.4.893-.892.893H3.57c-.493 0-.892-.4-.892-.893s.4-.893.892-.893zm0 9.821h28.572c.493 0 .893.4.893.893s-.4.893-.893.893H3.57c-.493 0-.892-.4-.892-.893s.4-.893.892-.893zm0 3.572h12.5c.494 0 .893.4.893.893s-.4.893-.893.893h-12.5c-.493 0-.892-.4-.892-.893s.4-.893.892-.893zm0 7.143h12.5c.494 0 .893.4.893.893s-.4.892-.893.892h-12.5c-.493 0-.892-.4-.892-.892 0-.494.4-.893.892-.893zm0 7.143h12.5c.494 0 .893.4.893.892 0 .494-.4.893-.893.893h-12.5c-.493 0-.892-.4-.892-.893s.4-.892.892-.892zm0 7.142h12.5c.494 0 .893.4.893.893s-.4.893-.893.893h-12.5c-.493 0-.892-.4-.892-.893s.4-.893.892-.893z" transform="translate(-163 -377) translate(0 -125) translate(163 502)"/>
                    <path d="M27.679 12.5h6.773l-7.666-7.666v6.773c0 .493.4.893.893.893z" transform="translate(-163 -377) translate(0 -125) translate(163 502)"/>
                    <path d="M25.95 1.796c.075.006.15.02.221.044.02.006.041.006.061.014.02.008.019.013.03.018.098.044.186.104.262.179l10.714 10.714c.075.076.136.165.179.262.004.01.014.02.019.03.004.01.007.041.013.062.024.07.039.145.043.22 0 .019.012.038.012.057v5.664l.535-.233c.226-.098.482-.098.707 0l.536.233V.893c0-.493-.4-.893-.893-.893H4.464c-.493 0-.893.4-.893.893v.893h22.322c.02 0 .037.01.056.01zM28.419 24.924l-.017.007-1.616.698v12.322c.008 2.358 1.155 4.568 3.08 5.932l8.527 6.074 8.528-6.071c1.923-1.364 3.07-3.573 3.079-5.932V25.633l-11.607-5.018-9.974 4.31zm19.26 1.647c.325.142.536.464.535.82v10.563c-.008 1.781-.875 3.448-2.328 4.477l-6.975 4.965c-.31.221-.726.221-1.036 0L30.9 42.431c-1.453-1.029-2.32-2.696-2.329-4.477V27.39c0-.355.21-.677.536-.82l8.929-3.857c.225-.097.481-.097.707 0l8.936 3.858z" transform="translate(-163 -377) translate(0 -125) translate(163 502)"/>
                    <path d="M30.357 27.977v9.977c.008 1.204.596 2.33 1.58 3.023l6.456 4.596 6.456-4.59c.985-.696 1.573-1.823 1.58-3.029v-9.977l-8.036-3.47-8.036 3.47zm13.951 1.683c.185.148.304.363.33.599.026.235-.043.471-.19.656l-7.144 8.929c-.3.376-.847.445-1.233.156L32.5 37.321c-.394-.295-.474-.855-.179-1.25.296-.394.856-.474 1.25-.178l2.88 2.16 6.602-8.254c.148-.185.363-.304.598-.33.236-.026.472.043.657.19z" transform="translate(-163 -377) translate(0 -125) translate(163 502)"/>
                </g>
            </g>
        </g>
    </g>
</svg>
