<svg xmlns="http://www.w3.org/2000/svg" width="75" height="50" viewBox="0 0 75 50">
    <g fill="none" fill-rule="evenodd">
        <g>
            <g transform="translate(-683 -198) translate(683 198)">
                <rect width="71.25" height="46.25" x="1.875" y="1.875" stroke="#333" stroke-width="3.75" rx="4.934"/>
                <rect width="21.676" height="3" x="47.872" y="7.2" fill="#333" rx="1.5"/>
                <rect width="13.165" height="3" x="31.25" y="7.2" fill="#333" rx="1.5"/>
                <rect width="38.298" height="3" x="31.25" y="17.511" fill="#333" rx="1.5"/>
                <rect width="38.298" height="3" x="31.25" y="27.822" fill="#333" rx="1.5"/>
                <rect width="17.42" height="3" x="6.782" y="38.133" fill="#333" rx="1.5"/>
                <rect width="12.101" height="3" x="57.447" y="38.133" fill="#333" rx="1.5"/>
                <rect width="22.806" height="3" x="29.422" y="38.133" fill="#333" rx="1.5"/>
                <path fill="#333" d="M22.733 23.33c-2.747-1.023-3.625-1.888-3.625-3.737 0-.204.028-.358.077-.487.215-.571.83-.635 1.13-2.295.153-.844.894-.014 1.035-1.94 0-.767-.404-.958-.404-.958s.205-1.136.286-2.01c.1-1.089-.615-3.903-4.429-3.903h-.096c-3.813 0-4.528 2.814-4.428 3.903.08.874.286 2.01.286 2.01s-.405.191-.405.959c.142 1.925.883 1.095 1.036 1.94.3 1.66.914 1.723 1.13 2.294.048.129.077.283.077.487 0 1.85-.878 2.714-3.626 3.738-2.756 1.027-3.995 2.075-3.995 2.79V30.8H26.728v-4.68c0-.714-1.239-1.762-3.995-2.79z"/>
            </g>
        </g>
    </g>
</svg>
