<svg xmlns="http://www.w3.org/2000/svg" width="43" height="50" viewBox="0 0 43 50">
    <g fill="none" fill-rule="evenodd">
        <g fill="#333">
            <g>
                <g transform="translate(-166 -126) translate(0 -125) translate(166 251)">
                    <path d="M34.387 33.62c-5.923-2.246-7.816-4.14-7.816-8.198 0-.447.062-.785.166-1.066.465-1.254 1.788-1.393 2.436-5.033.33-1.85 1.927-.03 2.233-4.254 0-1.682-.872-2.101-.872-2.101s.443-2.492.616-4.408C31.366 6.17 29.824 0 21.604 0c-.139.002-.172 0-.208 0-8.22 0-9.762 6.171-9.547 8.56.174 1.916.617 4.408.617 4.408s-.872.418-.872 2.101c.306 4.223 1.903 2.403 2.233 4.254.648 3.64 1.971 3.78 2.436 5.033.104.281.166.619.166 1.066 0 4.057-1.893 5.952-7.816 8.198C2.672 35.873 0 38.17 0 39.737v7.413C0 48.724 1.28 50 2.853 50H40.143C41.721 50 43 48.713 43 47.14v-7.403c0-1.567-2.672-3.864-8.613-6.117z"/>
                    <ellipse cx="35.833" cy="2.857" rx="2.867" ry="2.857"/>
                    <ellipse cx="2.867" cy="17.143" rx="2.867" ry="2.857"/>
                    <ellipse cx="40.133" cy="30" rx="2.867" ry="2.857"/>
                    <path fill-rule="nonzero" d="M3.152 17.798L36.12 3.512c.363-.157.53-.578.372-.94-.158-.361-.58-.527-.943-.37L2.58 16.488c-.363.157-.53.578-.372.94.158.361.58.527.943.37z"/>
                    <path fill-rule="nonzero" d="M2.632 17.818L39.9 30.675c.374.129.782-.069.912-.441.129-.373-.07-.78-.443-.909L3.1 16.468c-.374-.13-.782.068-.912.441-.129.373.07.78.443.909z"/>
                </g>
            </g>
        </g>
    </g>
</svg>
