<svg xmlns="http://www.w3.org/2000/svg" width="75" height="75" viewBox="0 0 75 75">
    <g fill="none" fill-rule="evenodd">
        <g>
            <g transform="translate(-151 -269) translate(151 269)">
                <circle cx="37.5" cy="37.5" r="37.5" fill="#D0021B"/>
                <path fill="#FFF" d="M50.297 46.71c.469.517.703 1.126.703 1.83 0 .702-.234 1.288-.703 1.757-.469.469-1.055.703-1.758.703-.703 0-1.312-.234-1.828-.703L37.5 41.086l-9.21 9.21c-.517.47-1.102.704-1.759.704-.656 0-1.242-.234-1.758-.703-.515-.469-.773-1.055-.773-1.758 0-.703.258-1.312.773-1.828l9.141-9.211-9.14-9.21c-.516-.517-.774-1.126-.774-1.83 0-.702.258-1.288.773-1.757.516-.469 1.102-.703 1.758-.703.657 0 1.242.234 1.758.703l9.211 9.211 9.21-9.21c.517-.47 1.126-.704 1.83-.704.702 0 1.288.234 1.757.703.469.469.703 1.055.703 1.758 0 .703-.234 1.312-.703 1.828L41.086 37.5l9.21 9.21z"/>
            </g>
        </g>
    </g>
</svg>
