<svg xmlns="http://www.w3.org/2000/svg" width="18" height="18" viewBox="0 0 18 18">
    <g fill="none" fill-rule="evenodd">
        <g fill="#430099" fill-rule="nonzero">
            <g>
                <path d="M23.518 7.213c1.382.797 2.475 1.887 3.278 3.27C27.599 11.864 28 13.37 28 15c0 1.629-.401 3.135-1.204 4.518-.803 1.382-1.896 2.475-3.278 3.278C22.135 23.599 20.628 24 19 24c-1.629 0-3.135-.401-4.518-1.204-1.382-.803-2.475-1.896-3.278-3.278C10.401 18.135 10 16.628 10 15c0-1.629.401-3.135 1.204-4.518.803-1.382 1.896-2.475 3.278-3.278C15.865 6.401 17.372 6 19 6c1.629 0 3.135.404 4.518 1.213zm-4.096 12.85c.152-.153.228-.334.228-.545 0-.211-.076-.39-.228-.537-.152-.146-.331-.22-.536-.22-.205 0-.384.074-.536.22-.153.147-.229.326-.229.537 0 .21.076.392.229.544.152.153.33.229.536.229.205 0 .384-.076.536-.229zm2.724-7.19c.047-.82-.222-1.541-.808-2.162-.633-.668-1.418-.996-2.356-.984-.867 0-1.608.307-2.223.922-.615.616-.923 1.357-.923 2.224 0 .176.061.325.185.448.123.123.272.185.448.185s.325-.062.448-.185.185-.272.185-.448c0-.516.184-.958.553-1.327.37-.37.818-.554 1.345-.554.563 0 1.037.2 1.424.598.328.351.48.756.457 1.213 0 .176-.015.316-.044.422-.03.105-.135.287-.316.545-.182.257-.449.562-.8.914-.446.433-.788.826-1.029 1.177-.24.352-.378.721-.413 1.108-.023.176.02.33.132.466.111.134.255.213.43.237h.071c.164 0 .305-.056.422-.167.117-.111.187-.243.21-.396.024-.34.382-.85 1.073-1.529.586-.598.982-1.087 1.187-1.468.205-.38.319-.794.342-1.239z" transform="translate(-286 -15) translate(276 9)"/>
            </g>
        </g>
    </g>
</svg>
