<svg xmlns="http://www.w3.org/2000/svg" width="164" height="50" viewBox="0 0 164 50">
    <g fill="none" fill-rule="evenodd">
        <g>
            <g>
                <g>
                    <path fill="#430099" d="M105.25 40c-3.438 0-6.25-2.813-6.25-6.25V6.25C99 2.812 101.813 0 105.25 0h42.5c3.438 0 6.25 2.813 6.25 6.25v27.5c0 3.438-2.813 6.25-6.25 6.25h-42.5zM104 6.25v27.5c0 .664.586 1.25 1.25 1.25h42.5c.664 0 1.25-.586 1.25-1.25V6.25c0-.664-.586-1.25-1.25-1.25h-42.5c-.664 0-1.25.586-1.25 1.25zm60 36.25v3.75c0 2.07-2.813 3.75-6.25 3.75h-62.5C91.812 50 89 48.32 89 46.25V42.5h75zm-34.375 3.75c.352 0 .625-.273.625-.625s-.273-.625-.625-.625h-6.25c-.352 0-.625.273-.625.625s.273.625.625.625h6.25zM81 22.729L69.024 15v4.306C46.47 20.962 36 35 36 35c12.58-8.441 26.333-9.397 33.024-9.274v4.728L81 22.73z" transform="translate(-106 -273) translate(16 273) translate(90)"/>
                    <g transform="translate(-106 -273) translate(16 273) translate(90)">
                        <path fill="#430099" fill-rule="nonzero" d="M.614.004C.264.012 0 .276 0 .612v48.771c0 .336.275.609.614.609h26.754c.34 0 .615-.273.615-.609V.613c0-.337-.275-.61-.615-.61C9.766 0 .848 0 .614.004zm24.377 42.469c0 .102-.08.185-.18.185H3.171c-.1 0-.18-.083-.18-.185V5.843c0-.103.08-.185.18-.185H24.81c.1 0 .181.082.181.184v36.631z"/>
                        <ellipse cx="13.991" cy="46.353" fill="#FFF" rx="1.717" ry="1.7"/>
                        <path fill="#FFF" d="M15.429-2h1.142c.154 0 .28.125.28.279V7.72c0 .154-.126.279-.28.279H15.43c-.154 0-.28-.125-.28-.279V-1.72c0-.154.126-.279.28-.279z" transform="rotate(90 16 3)"/>
                        <path fill="#FFF" d="M8.429 2.142H9.57c.154 0 .28.124.28.279v1.158c0 .155-.126.28-.28.28H8.43c-.154 0-.28-.125-.28-.28V2.421c0-.155.126-.28.28-.28z" transform="rotate(90 9 3)"/>
                    </g>
                </g>
            </g>
        </g>
    </g>
</svg>
