<svg xmlns="http://www.w3.org/2000/svg" xmlns:xlink="http://www.w3.org/1999/xlink" width="375" height="557" viewBox="0 0 375 557">
    <defs>
        <path id="3gkuv0zfta" d="M37.142.27c-5.364 0-9.727 4.366-9.727 9.734V184.53L.545 237.58c-.014.025-.024.05-.033.077-.071.143-.135.29-.192.442-.017.044-.033.09-.048.134-.057.168-.107.34-.147.517l-.014.053c-.042.192-.07.389-.088.586-.006.05-.006.1-.008.15-.005.103-.015.208-.015.313v12.757c0 6.379 5.181 11.564 11.553 11.564h319.894c6.372 0 11.553-5.185 11.553-11.564v-12.757c0-.105-.01-.21-.015-.312-.002-.051-.002-.1-.01-.149-.015-.2-.046-.394-.086-.586-.006-.019-.01-.036-.014-.055-.04-.176-.09-.349-.147-.517l-.05-.132c-.057-.151-.12-.3-.19-.444-.011-.025-.02-.052-.032-.077l-26.873-53.047V10.004c0-5.368-4.361-9.734-9.727-9.734H37.142z"/>
        <path id="67d6hgp4jc" d="M23.03.383L.707 44.445h110.39l5.54-20.108c1.127-4.091 4.878-6.95 9.12-6.95h66.487c4.243 0 7.995 2.859 9.123 6.95l5.54 20.108h110.389L294.977.383H23.029z"/>
        <path id="qoigayl1oe" d="M.468.902v7.73c0 .827.676 1.503 1.504 1.503h319.894c.83 0 1.504-.676 1.504-1.503V.902H.468z"/>
        <path id="2qj1hcrgmg" d="M1.987.465C1.427.465.973.917.973 1.478v.655c0 .558.455 1.012 1.014 1.012h28.79c.557 0 1.013-.454 1.013-1.012v-.655c0-.561-.456-1.013-1.014-1.013H1.987z"/>
        <path id="6vn24q707i" d="M1.8.465C1.24.465.785.917.785 1.478v.655c0 .558.454 1.012 1.013 1.012h.652c.561 0 1.015-.454 1.015-1.012v-.655c0-.561-.454-1.013-1.015-1.013h-.652z"/>
        <path id="xvqn6kgatk" d="M0 0.283L75.014 0.283 75.014 268.413 0 268.413z"/>
        <path id="uyn41va98m" d="M0.007 0.189L146.609 0.189 146.609 264.037 0.007 264.037z"/>
        <linearGradient id="ckmbt7fowo" x1="50%" x2="50%" y1="100%" y2="0%">
            <stop offset="0%" stop-color="#FFF"/>
            <stop offset="100%" stop-color="#FFF" stop-opacity="0"/>
        </linearGradient>
    </defs>
    <g fill="none" fill-rule="evenodd">
        <g>
            <g>
                <g>
                    <g>
                        <g transform="translate(-90 -426) translate(90 426) translate(16) translate(0 .999) translate(0 .646)">
                            <mask id="uguqi4lj5b" fill="#fff">
                                <use xlink:href="#3gkuv0zfta"/>
                            </mask>
                            <path fill="#000" d="M-9.581 273.743L352.581 273.743 352.581 -9.302 -9.581 -9.302z" mask="url(#uguqi4lj5b)"/>
                        </g>
                        <path fill="#494949" d="M37.515 181.348L305.588 181.348 305.588 10.971 37.515 10.971z" transform="translate(-90 -426) translate(90 426) translate(16) translate(0 .999)"/>
                        <path fill="#000" d="M37.515 201.389L305.485 201.389 305.485 181.276 37.515 181.276z" transform="translate(-90 -426) translate(90 426) translate(16) translate(0 .999)"/>
                        <path fill="#656565" d="M37.464 181.482h268.072V11.107H37.464v170.375zm3.35-3.35h261.373V14.462H40.813v163.67z" transform="translate(-90 -426) translate(90 426) translate(16) translate(0 .999)"/>
                        <g transform="translate(-90 -426) translate(90 426) translate(16) translate(0 .999) translate(12.497 191.159)">
                            <mask id="x4090jqlgd" fill="#fff">
                                <use xlink:href="#67d6hgp4jc"/>
                            </mask>
                            <path fill="#212121" d="M-8.873 54.018L326.878 54.018 326.878 -9.188 -8.873 -9.188z" mask="url(#x4090jqlgd)"/>
                        </g>
                        <path fill="#303030" d="M138.704 218.602L134.02 235.603 208.98 235.603 204.297 218.602z" transform="translate(-90 -426) translate(90 426) translate(16) translate(0 .999)"/>
                        <g transform="translate(-90 -426) translate(90 426) translate(16) translate(0 .999) translate(9.581 244.759)">
                            <mask id="vwzjujocwf" fill="#fff">
                                <use xlink:href="#qoigayl1oe"/>
                            </mask>
                            <path fill="#212121" d="M-9.113 19.706L332.951 19.706 332.951 -8.669 -9.113 -8.669z" mask="url(#vwzjujocwf)"/>
                        </g>
                        <g transform="translate(-90 -426) translate(90 426) translate(16) translate(0 .999) translate(157.128 4.474)">
                            <mask id="m7zh1qtezh" fill="#fff">
                                <use xlink:href="#2qj1hcrgmg"/>
                            </mask>
                            <path fill="#303030" d="M-8.608 12.717L41.371 12.717 41.371 -9.108 -8.608 -9.108z" mask="url(#m7zh1qtezh)"/>
                        </g>
                        <g transform="translate(-90 -426) translate(90 426) translate(16) translate(0 .999) translate(153.296 4.474)">
                            <mask id="io1odrwn5j" fill="#fff">
                                <use xlink:href="#6vn24q707i"/>
                            </mask>
                            <path fill="#303030" d="M-8.793 12.717L13.047 12.717 13.047 -9.108 -8.793 -9.108z" mask="url(#io1odrwn5j)"/>
                        </g>
                    </g>
                    <g>
                        <g>
                            <path fill="#E3A37C" d="M49.65 325.773s13.41-36.393 26.282-45.491c0 0 16.09-10.704 30.573-7.225 0 0 17.163-2.409 26.013 15.252l7.803 12.236 1.583 2.482s-6.436 6.422-13.409 0c0 0-12.068-5.62-13.14-10.704 0 0-9.387 5.62-16.091 0" transform="translate(-90 -426) translate(90 426) translate(16) translate(57 46) translate(0 .116)"/>
                            <path fill="#E3A37C" d="M121.388 282.556s23.064 33.182 9.655 82.954l-11.8 33.182v96.87l-88.081.133 6.555-92.721s3.754-16.591-5.364-35.858c0 0-21.454-45.49-25.208-57.8 0 0-13.41-22.478-3.219-56.195 0 0 12.873-23.013 46.663-57.8 0 0 9.655-17.127 44.518-20.34 0 0 4.291-.533 17.7 12.312 0 0 31.109 27.294 31.645 30.505 0 0 5.364 6.958-4.291 9.634l-2.413 2.14s14.213 17.662 16.895 22.21c0 0 4.827 9.366-10.46 10.705l-4.022-.803s5.632 11.774 6.704 17.929c0 0-.804 11.239-17.431 4.816 0 0-4.559-1.873-8.85-7.225h-1.34l1.072 4.014 1.072 1.338z" transform="translate(-90 -426) translate(90 426) translate(16) translate(57 46) translate(0 .116)"/>
                            <path fill="#D39371" d="M146.866 279.613s-5.632 5.62-17.7-1.338c0 0-8.314-5.085-10.46-15.52v-9.902s13.41 10.704 21.455 8.83l4.023.803s8.341-.491 10.473-4.66c0 0-7.791 1.717-12.35.646 0 0-10.728-1.337-21.186-11.773 0 0 .804-6.69-1.61-16.324 0 0 15.823 1.338 18.237-.802l2.413-2.141s2.449-.486 4.157-2.007c.88-.784 1.609-1.873 1.613-3.233 0 0-5.502 4.705-14.888 4.705 0 0-10.459 1.07-11.532-3.747-1.073-4.817-1.877-9.098-1.877-9.098H114.148s2.145 8.83 2.145 15.52c0 0 .268 4.282.268 29.971 0 0 .269 10.436 2.682 17.661h1.341s6.716 9.93 19.315 9.113c0 0 5.894-.282 6.967-6.704" transform="translate(-90 -426) translate(90 426) translate(16) translate(57 46) translate(0 .116)"/>
                            <path fill="#FCF5F0" d="M144.452 217.798s-6.436 1.606-10.996-1.873c0 0-4.022-2.676-3.754-6.155 0 0 .18-3.67 2.37-5.046 0 0 12.112 11.201 12.38 13.074" transform="translate(-90 -426) translate(90 426) translate(16) translate(57 46) translate(0 .116)"/>
                            <g transform="translate(-90 -426) translate(90 426) translate(16) translate(57 46) translate(0 .116) translate(0 227.283)">
                                <mask id="khq14p0kll" fill="#fff">
                                    <use xlink:href="#xvqn6kgatk"/>
                                </mask>
                                <path fill="#D39371" d="M22.03.283S7.146 23.697 10.63 38.148c0 0 2.414 16.858 24.673 53.519 0 0 40.764 47.096 39.69 79.743l.021 43.35-.14 53.653H31.162l3.74-53.52 2.682-39.068.673-3.95s.4-16.12-3.469-26.162l-10.613-22.872-16.36-37.73s-12.067-20.338-6.21-49.842c0 0 1.384-8.494 2.724-10.635 0 0 10.46-16.323 15.21-21.186L22.031.283z" mask="url(#khq14p0kll)"/>
                            </g>
                            <path fill="#D39371" d="M73.385 221.812v6.69s-.537 5.62-5.096 5.352c0 0 .805 6.422-4.559 9.9 0 0-1.877 1.874-4.559 2.41l-.804 1.337s3.754 2.409 2.413 8.83c0 0-1.072 4.015-9.922 6.156 0 0 19.845 6.154 21.99 28.364 0 0 6.168-14.182 5.9-18.999 0 0 .268-13.647-1.609-26.224 0 0-1.61-11.239-1.341-25.956v-5.62h-2.681l.268 7.76z" transform="translate(-90 -426) translate(90 426) translate(16) translate(57 46) translate(0 .116)"/>
                            <path fill="#FCF5F0" d="M154.643 251.783s-7.51-.268-12.604-5.887c0 0-4.828-4.55-4.56-9.366 0 0 .124-4.188 1.805-5.038 0 0 14.554 16.812 15.359 20.29M145.89 275.803s-3.583-.74-5.729-4.486c0 0-4.559-6.69 0-9.633 0 0 4.751 10.308 5.728 14.119" transform="translate(-90 -426) translate(90 426) translate(16) translate(57 46) translate(0 .116)"/>
                            <path fill="#D39371" d="M141.904 303.027s-4.699 4.792-10.797 1.86c0 0-2.88-1.325-4.489-3.733 0 0 5.632 6.155 15.286 1.873" transform="translate(-90 -426) translate(90 426) translate(16) translate(57 46) translate(0 .116)"/>
                            <path fill="#FCF5F0" d="M141.336 302.027s-2.651-.1-4.636-2.521c0 0-4.065-4.239-1.16-6.89 0 0 4.64 6.803 5.796 9.41" transform="translate(-90 -426) translate(90 426) translate(16) translate(57 46) translate(0 .116)"/>
                            <g transform="translate(-90 -426) translate(90 426) translate(16) translate(57 46) translate(0 .116) translate(82.135)">
                                <mask id="i5v2j32ynn" fill="#fff">
                                    <use xlink:href="#uyn41va98m"/>
                                </mask>
                                <path fill="#000" d="M.007 260.38V3.846C.007 1.834 1.656.189 3.67.189h139.275c2.014 0 3.664 1.645 3.664 3.656V260.38c0 2.011-1.65 3.656-3.664 3.656H3.67c-2.015 0-3.664-1.645-3.664-3.656" mask="url(#i5v2j32ynn)"/>
                            </g>
                            <path fill="#333" d="M90.236 236.344V24.292c0-.67.55-1.219 1.221-1.219h127.971c.672 0 1.221.549 1.221 1.22v212.05c0 .67-.55 1.22-1.22 1.22H91.456c-.671 0-1.22-.55-1.22-1.22" transform="translate(-90 -426) translate(90 426) translate(16) translate(57 46) translate(0 .116)"/>
                            <path fill="#999" d="M220.65 236.492V24.144c0-.589-.483-1.07-1.073-1.07H91.309c-.59 0-1.073.481-1.073 1.07v212.348c0 .589.483 1.07 1.073 1.07h128.268c.59 0 1.073-.481 1.073-1.07zm-128.805-.535H219.04V24.679H91.845v211.278z" transform="translate(-90 -426) translate(90 426) translate(16) translate(57 46) translate(0 .116)"/>
                            <path fill="#333" d="M155.443 259.101c-4.967 0-8.994-4.018-8.994-8.974 0-4.957 4.027-8.975 8.994-8.975s8.994 4.018 8.994 8.975c0 4.956-4.027 8.974-8.994 8.974M141.952 13.337v-2.964c0-.419.343-.761.763-.761h33.55c.42 0 .763.342.763.761v2.964c0 .42-.343.762-.763.762h-33.55c-.42 0-.763-.343-.763-.762M133.857 13.337v-2.964c0-.419.344-.761.763-.761h2.971c.42 0 .763.342.763.761v2.964c0 .42-.343.762-.763.762h-2.97c-.42 0-.764-.343-.764-.762" transform="translate(-90 -426) translate(90 426) translate(16) translate(57 46) translate(0 .116)"/>
                            <path fill="#000" d="M80.775 197.812c-2.718 3.567-4.8 8.342-4.977 16.245h-2.681s.264-10.54 7.657-18.254c3.14-3.274 4.14-4.366 9.462-5.824-3.64.837.38.363 0 .837 0 0-3.896-.307-9.461 6.996z" opacity=".1" transform="translate(-90 -426) translate(90 426) translate(16) translate(57 46) translate(0 .116)"/>
                            <path fill="#E3A37C" d="M120.45 281.352s-1.319-4.078-3.073-12.609l-.669-6.401-.138-2.535-.045-14.763-.155-13.11s-.024-5.682-.52-8.504c0 0-.516-6.208-3.321-14.951 0 0-5.345-17.95-17.417-18.498 0 0-17.17-.675-19.18 21.465 0 0-.334 5.988-.1 16.472 0 0 .292 8.786.8 13.248 0 0 1.255 10.168 1.417 12.265 0 0 .994 14.488.712 19.666 0 0-.933 5.926-3.423 11.573 0 0 45.246 7.252 45.112-3.318" transform="translate(-90 -426) translate(90 426) translate(16) translate(57 46) translate(0 .116)"/>
                            <path fill="#FCF5F0" d="M107.98 218.869s.268-23.549-14.482-24.62c0 0-14.213-.534-12.336 24.62 0 0 12.068 9.365 26.818 0" transform="translate(-90 -426) translate(90 426) translate(16) translate(57 46) translate(0 .116)"/>
                        </g>
                        <path fill="#FFF" d="M126.773 120.786h18.91v-18.844h-18.91v18.844zm3.782-3.768h11.346V105.71h-11.346v11.307z" transform="translate(-90 -426) translate(90 426) translate(16) translate(57 46)"/>
                        <path fill="#FFF" d="M134.337 113.249L138.119 113.249 138.119 109.48 134.337 109.48zM168.374 120.786h18.91v-18.844h-18.91v18.844zm3.782-3.768h11.346V105.71h-11.346v11.307z" transform="translate(-90 -426) translate(90 426) translate(16) translate(57 46)"/>
                        <path fill="#FFF" d="M175.938 113.249L179.72 113.249 179.72 109.48 175.938 109.48zM126.773 162.244h18.91V143.4h-18.91v18.844zm3.782-3.769h11.346V147.17h-11.346v11.306z" transform="translate(-90 -426) translate(90 426) translate(16) translate(57 46)"/>
                        <path fill="#FFF" d="M134.337 154.707L138.119 154.707 138.119 150.938 134.337 150.938zM157.028 105.711L164.592 105.711 164.592 101.942 157.028 101.942zM149.465 105.711L149.465 109.479 149.465 111.364 149.465 113.248 157.029 113.248 157.029 117.018 160.81 117.018 160.81 113.248 164.592 113.248 164.592 109.479 153.247 109.479 153.247 105.711zM149.465 120.786L153.247 120.786 153.247 117.018 149.465 117.018zM160.81 120.786L160.81 124.555 149.465 124.555 149.465 128.324 164.592 128.324 164.592 120.786zM126.773 124.555L126.773 139.631 130.555 139.631 130.555 135.862 134.337 135.862 134.337 132.093 130.555 132.093 130.555 124.555zM134.337 128.324L138.119 128.324 138.119 124.555 134.337 124.555z" transform="translate(-90 -426) translate(90 426) translate(16) translate(57 46)"/>
                        <path fill="#FFF" d="M141.901 124.555L141.901 132.093 138.119 132.093 138.119 139.631 141.901 139.631 141.901 135.862 143.792 135.862 145.683 135.862 149.465 135.862 149.465 139.631 157.028 139.631 157.028 135.862 153.247 135.862 153.247 132.093 145.683 132.093 145.683 124.555zM160.811 139.631L164.592 139.631 164.592 132.093 160.811 132.093zM149.465 143.4L149.465 147.169 157.029 147.169 157.029 158.475 149.465 158.475 149.465 162.244 160.81 162.244 160.81 158.475 168.374 158.475 168.374 154.707 160.81 154.707 160.81 143.4z" transform="translate(-90 -426) translate(90 426) translate(16) translate(57 46)"/>
                        <path fill="#FFF" d="M149.465 154.707L153.247 154.707 153.247 150.938 149.465 150.938zM164.592 150.938L168.374 150.938 168.374 143.4 164.592 143.4zM172.156 150.938L172.156 162.244 175.938 162.244 175.938 154.707 183.502 154.707 183.502 150.938z" transform="translate(-90 -426) translate(90 426) translate(16) translate(57 46)"/>
                        <path fill="#FFF" d="M179.72 162.244L187.284 162.244 187.284 158.475 179.72 158.475zM183.502 147.169L187.284 147.169 187.284 143.4 183.502 143.4zM168.374 135.862L168.374 139.631 172.156 139.631 172.156 147.169 175.938 147.169 175.938 135.862zM179.72 124.555L179.72 128.324 175.938 128.324 175.938 124.555 172.156 124.555 172.156 128.324 168.374 128.324 168.374 132.093 183.502 132.093 183.502 128.324 187.283 128.324 187.283 124.555zM179.72 139.631L187.284 139.631 187.284 135.862 179.72 135.862z" transform="translate(-90 -426) translate(90 426) translate(16) translate(57 46)"/>
                        <path fill="#FFF" d="M117.113 171.906h79.777V92.302h-79.777v79.604zm81.512 3.46h-83.247c-.957 0-1.734-.774-1.734-1.73V90.572c0-.955.777-1.73 1.734-1.73h83.247c.957 0 1.734.775 1.734 1.73v83.066c0 .955-.777 1.73-1.734 1.73z" transform="translate(-90 -426) translate(90 426) translate(16) translate(57 46)"/>
                    </g>
                </g>
                <g fill="url(#ckmbt7fowo)" transform="translate(-90 -426) translate(90 426) translate(0 401)">
                    <path d="M0 0H375V156H0z"/>
                    <path d="M0 0H375V156H0z"/>
                    <path d="M0 0H375V156H0z"/>
                </g>
            </g>
        </g>
    </g>
</svg>
